HIERARCHY
ROOT Hips
{
	OFFSET 0.00000 0.00000 0.00000
	CHANNELS 6 Xposition Yposition Zposition Zrotation Yrotation Xrotation 
	JOINT LHipJoint
	{
		OFFSET 0 0 0
		CHANNELS 3 Zrotation Yrotation Xrotation
		JOINT LeftUpLeg
		{
			OFFSET 1.58895 -1.83665 0.71753
			CHANNELS 3 Zrotation Yrotation Xrotation
			JOINT LeftLeg
			{
				OFFSET 2.50528 -6.88321 0.00000
				CHANNELS 3 Zrotation Yrotation Xrotation
				JOINT LeftFoot
				{
					OFFSET 2.63244 -7.23257 0.00000
					CHANNELS 3 Zrotation Yrotation Xrotation
					JOINT LeftToeBase
					{
						OFFSET 0.23691 -0.65090 1.72750
						CHANNELS 3 Zrotation Yrotation Xrotation
						End Site
						{
							OFFSET 0.00000 -0.00000 0.92561
						}
					}
				}
			}
		}
	}
	JOINT RHipJoint
	{
		OFFSET 0 0 0
		CHANNELS 3 Zrotation Yrotation Xrotation
		JOINT RightUpLeg
		{
			OFFSET -1.51435 -1.83665 0.71753
			CHANNELS 3 Zrotation Yrotation Xrotation
			JOINT RightLeg
			{
				OFFSET -2.54551 -6.99375 0.00000
				CHANNELS 3 Zrotation Yrotation Xrotation
				JOINT RightFoot
				{
					OFFSET -2.66027 -7.30903 0.00000
					CHANNELS 3 Zrotation Yrotation Xrotation
					JOINT RightToeBase
					{
						OFFSET -0.22981 -0.63138 2.03959
						CHANNELS 3 Zrotation Yrotation Xrotation
						End Site
						{
							OFFSET -0.00000 -0.00000 1.07060
						}
					}
				}
			}
		}
	}
	JOINT LowerBack
	{
		OFFSET 0 0 0
		CHANNELS 3 Zrotation Yrotation Xrotation
		JOINT Spine
		{
			OFFSET -0.02651 1.86275 -0.11152
			CHANNELS 3 Zrotation Yrotation Xrotation
			JOINT Spine1
			{
				OFFSET 0.01019 1.86224 0.04087
				CHANNELS 3 Zrotation Yrotation Xrotation
				JOINT Neck
				{
					OFFSET 0 0 0
					CHANNELS 3 Zrotation Yrotation Xrotation
					JOINT Neck1
					{
						OFFSET -0.01926 1.80512 0.08867
						CHANNELS 3 Zrotation Yrotation Xrotation
						JOINT Head
						{
							OFFSET 0.05516 1.76451 -0.38475
							CHANNELS 3 Zrotation Yrotation Xrotation
							End Site
							{
								OFFSET 0.01592 1.82587 -0.14001
							}
						}
					}
				}
				JOINT LeftShoulder
				{
					OFFSET 0 0 0
					CHANNELS 3 Zrotation Yrotation Xrotation
					JOINT LeftArm
					{
						OFFSET 3.47116 1.51376 0.14491
						CHANNELS 3 Zrotation Yrotation Xrotation
						JOINT LeftForeArm
						{
							OFFSET 4.78095 -0.00000 0.00000
							CHANNELS 3 Zrotation Yrotation Xrotation
							JOINT LeftHand
							{
								OFFSET 3.58615 -0.00000 -0.00000
								CHANNELS 3 Zrotation Yrotation Xrotation
								JOINT LeftFingerBase
								{
									OFFSET 0 0 0
									CHANNELS 3 Zrotation Yrotation Xrotation
									JOINT LeftHandIndex1
									{
										OFFSET 0.65981 -0.00000 0.00000
										CHANNELS 3 Zrotation Yrotation Xrotation
										End Site
										{
											OFFSET 0.53196 -0.00000 0.00000
										}
									}
								}
								JOINT LThumb
								{
									OFFSET 0 0 0
									CHANNELS 3 Zrotation Yrotation Xrotation
									End Site
									{
										OFFSET 0.54008 -0.00000 0.54008
									}
								}
							}
						}
					}
				}
				JOINT RightShoulder
				{
					OFFSET 0 0 0
					CHANNELS 3 Zrotation Yrotation Xrotation
					JOINT RightArm
					{
						OFFSET -3.31725 1.61216 0.35156
						CHANNELS 3 Zrotation Yrotation Xrotation
						JOINT RightForeArm
						{
							OFFSET -4.48913 -0.00000 0.00000
							CHANNELS 3 Zrotation Yrotation Xrotation
							JOINT RightHand
							{
								OFFSET -3.70510 -0.00000 0.00000
								CHANNELS 3 Zrotation Yrotation Xrotation
								JOINT RightFingerBase
								{
									OFFSET 0 0 0
									CHANNELS 3 Zrotation Yrotation Xrotation
									JOINT RightHandIndex1
									{
										OFFSET -0.44914 -0.00000 0.00000
										CHANNELS 3 Zrotation Yrotation Xrotation
										End Site
										{
											OFFSET -0.36211 -0.00000 0.00000
										}
									}
								}
								JOINT RThumb
								{
									OFFSET 0 0 0
									CHANNELS 3 Zrotation Yrotation Xrotation
									End Site
									{
										OFFSET -0.36763 -0.00000 0.36763
									}
								}
							}
						}
					}
				}
			}
		}
	}
}
MOTION
Frames: 15
Frame Time: .0083333
-0.7228 18.612 6.0552 0 0 0 0 0 0 -21 0 0 0 0 0 0 0 0 0 0 0 0 0 0 21 0 0 0 0 0 0 0 0 0 0 0 0 0 0 0 0 0 0 0 0 0 0 -16 0 0 21 0 0 11 0 0 0 -8 0 0 0 0 0 0 0 0 0 0 0 0 0 0 0 0 0 0 0 0 8 0 0 0 0 0 0 0 0 0 0 0 0 0 0 0 0 0
-0.7228 18.6120 6.0552 -2.7372 -0.2159 -1.0206 0.0000 0.0000 0.0000 -11.3628 -5.4711 -0.9393 1.5018 7.7406 21.9288 1.4346 1.1588 -23.0846 8.4422 -16.4350 -54.1401 0.0000 0.0000 0.0000 16.8815 -2.0286 10.9147 0.0000 -0.0000 0.0000 -1.1246 -5.8703 -22.9586 -0.0530 1.4853 -4.0852 1.2181 0.0832 8.2141 0.2070 0.2561 -2.0595 -0.5040 0.0804 -6.7693 -0.2923 -0.9581 -14.8359 2.9425 -2.0206 23.0608 0.8181 -0.6255 9.7967 0.0000 0.0000 0.0000 -92.7664 13.1900 23.1675 20.9533 -31.7738 -6.0253 -0.0000 -0.0000 0.1051 4.9065 -19.7942 -1.6652 -7.1250 0.0000 -0.0000 -15.0542 10.6334 12.4675 0.0000 0.0000 0.0000 90.8864 -16.4132 25.4357 -22.0898 33.0784 -6.6348 0.0000 0.0000 11.7542 -5.0809 -37.0195 3.0642 7.1250 -0.0000 -0.0000 35.9138 -63.5283 -17.2387
-0.7222 18.6116 6.0549 -2.7295 -0.2054 -1.0213 0.0000 0.0000 0.0000 -11.3725 -5.4822 -0.9362 1.5013 7.7393 21.9250 1.4331 1.1549 -23.0710 8.4464 -16.4380 -54.1550 0.0000 0.0000 0.0000 16.8727 -2.0378 10.9100 0.0000 0.0000 -0.0000 -1.1189 -5.9189 -22.9416 -0.0583 1.5584 -4.2867 1.2217 0.0815 8.2093 0.1958 0.2534 -2.0517 -0.5173 0.0788 -6.7583 -0.2536 -0.9523 -14.8568 2.8724 -2.0061 23.1047 0.7891 -0.6227 9.8148 0.0000 0.0000 0.0000 -92.7486 13.1933 23.2619 21.0484 -31.8848 -6.0755 -0.0000 -0.0000 0.0787 4.8849 -19.2576 -1.6146 -7.1250 0.0000 -0.0000 -15.0846 11.1538 12.3277 0.0000 0.0000 0.0000 90.8945 -16.4155 25.4527 -22.1012 33.0912 -6.6410 0.0000 0.0000 11.7232 -5.0815 -36.8741 3.0543 7.1250 -0.0000 -0.0000 35.7324 -63.4128 -17.0442
-0.7214 18.6117 6.0545 -2.7354 -0.2280 -1.0072 0.0000 0.0000 0.0000 -11.3734 -5.4900 -0.9449 1.5013 7.7394 21.9252 1.4304 1.1927 -23.0644 8.4591 -16.4467 -54.1999 0.0000 0.0000 0.0000 16.8761 -2.0101 10.8988 0.0000 0.0000 -0.0000 -1.1244 -5.8866 -22.9670 -0.0533 1.4903 -4.0990 1.2459 0.0924 8.1570 0.1821 0.2685 -2.0289 -0.5473 0.0853 -6.7037 -0.1656 -0.9472 -14.9014 2.7539 -1.9925 23.1253 0.7346 -0.6217 9.8281 -0.0000 -0.0000 0.0000 -92.7113 13.1033 23.1994 20.8951 -31.7057 -5.9947 -0.0000 -0.0000 0.0979 4.9200 -19.7399 -1.6654 -7.1250 0.0000 -0.0000 -15.0474 10.6850 12.4449 -0.0000 -0.0000 0.0000 90.9301 -16.3708 25.4523 -22.1037 33.0940 -6.6424 0.0000 0.0000 11.7201 -5.1112 -36.8567 3.0710 7.1250 -0.0000 -0.0000 35.6809 -63.4068 -17.0113
-0.7212 18.6122 6.0535 -2.7321 -0.2399 -0.9935 0.0000 0.0000 0.0000 -11.3793 -5.5019 -0.9533 1.5011 7.7387 21.9231 1.4335 1.1743 -23.0815 8.4421 -16.4350 -54.1398 0.0000 0.0000 0.0000 16.8705 -1.9938 10.8875 0.0000 0.0000 -0.0000 -1.1323 -5.8396 -23.0036 -0.0500 1.4436 -3.9703 1.2666 0.1081 8.1044 0.1600 0.2892 -1.9979 -0.5846 0.0947 -6.6400 -0.0984 -0.9493 -14.9146 2.6675 -1.9896 23.0873 0.6932 -0.6247 9.8153 0.0000 -0.0000 0.0000 -92.6278 12.9498 23.0741 20.5144 -31.2571 -5.7959 -0.0000 -0.0000 0.0890 5.1216 -21.2873 -1.8637 -7.1250 0.0000 -0.0000 -14.8827 9.1737 12.7698 0.0000 -0.0000 0.0000 90.9863 -16.2971 25.4061 -22.0981 33.0877 -6.6393 0.0000 0.0000 11.7336 -5.0030 -36.9788 3.0143 7.1250 -0.0000 -0.0000 35.9413 -63.4752 -17.2093
-0.7208 18.6128 6.0531 -2.7354 -0.2440 -0.9830 0.0000 0.0000 0.0000 -11.3771 -5.5095 -0.9608 1.5014 7.7394 21.9254 1.4344 1.1705 -23.0869 8.4375 -16.4318 -54.1236 0.0000 0.0000 0.0000 16.8737 -1.9858 10.8759 0.0000 -0.0000 0.0000 -1.1293 -5.8746 -23.0005 -0.0542 1.5017 -4.1304 1.2698 0.1062 8.1141 0.1573 0.2871 -2.0088 -0.5890 0.0933 -6.6572 -0.0456 -0.9353 -14.8960 2.5948 -1.9647 23.0816 0.6622 -0.6171 9.8080 -0.0000 -0.0000 0.0000 -92.6120 12.9872 23.2815 20.7178 -31.4975 -5.9018 -0.0000 0.0000 -0.0024 5.0879 -20.2641 -1.7663 -7.1250 0.0000 -0.0000 -14.9271 10.1665 12.5013 -0.0000 -0.0000 0.0000 91.0002 -16.3019 25.4041 -22.1003 33.0902 -6.6405 0.0000 0.0000 11.7380 -4.8800 -37.0224 2.9429 7.1250 -0.0000 -0.0000 36.1192 -63.4771 -17.3075
-0.7199 18.6128 6.0528 -2.7184 -0.2400 -0.9755 0.0000 0.0000 0.0000 -11.4016 -5.5276 -0.9661 1.5021 7.7413 21.9310 1.4330 1.1989 -23.0873 8.4354 -16.4303 -54.1161 0.0000 0.0000 0.0000 16.8536 -1.9868 10.8676 0.0000 0.0000 -0.0000 -1.1245 -5.9080 -22.9821 -0.0557 1.5230 -4.1890 1.2424 0.0941 8.1647 0.1619 0.2696 -2.0540 -0.5667 0.0852 -6.7346 -0.0114 -0.9151 -14.8569 2.5339 -1.9305 23.1194 0.6398 -0.6052 9.8124 -0.0000 0.0000 0.0000 -92.6591 13.1056 23.1015 20.7624 -31.5500 -5.9251 -0.0000 -0.0000 0.0929 5.0182 -20.6813 -1.7763 -7.1250 0.0000 -0.0000 -14.9604 9.7677 12.6564 -0.0000 0.0000 0.0000 90.9846 -16.3659 25.4261 -22.1074 33.0982 -6.6444 0.0000 0.0000 11.7585 -4.7867 -37.0321 2.8871 7.1250 -0.0000 -0.0000 36.2250 -63.4600 -17.3507
-0.7192 18.6120 6.0520 -2.7141 -0.2453 -0.9949 0.0000 0.0000 0.0000 -11.4174 -5.5436 -0.9371 1.5022 7.7414 21.9313 1.4328 1.2455 -23.1038 8.4400 -16.4335 -54.1325 0.0000 0.0000 0.0000 16.8447 -1.9876 10.8900 0.0000 -0.0000 0.0000 -1.1294 -5.8670 -22.9969 -0.0524 1.4775 -4.0638 1.2296 0.0828 8.2094 0.1625 0.2539 -2.0708 -0.5568 0.0777 -6.7784 0.0170 -0.8955 -14.8127 2.5033 -1.9030 23.1447 0.6281 -0.5936 9.8120 0.0000 -0.0000 0.0000 -92.6854 13.1673 22.9323 20.7455 -31.5300 -5.9163 -0.0000 -0.0000 0.1517 4.9676 -21.1339 -1.7950 -7.1250 0.0000 -0.0000 -14.9817 9.3334 12.8115 0.0000 -0.0000 0.0000 90.9889 -16.3996 25.4455 -22.1100 33.1011 -6.6458 0.0000 0.0000 11.7974 -4.7684 -37.0944 2.8802 7.1250 -0.0000 -0.0000 36.3214 -63.5044 -17.4407
-0.7183 18.6119 6.0509 -2.7439 -0.2729 -1.0064 0.0000 0.0000 0.0000 -11.3948 -5.5333 -0.9208 1.5015 7.7399 21.9267 1.4338 1.2911 -23.1300 8.4634 -16.4498 -54.2153 0.0000 0.0000 0.0000 16.8719 -1.9625 10.9027 0.0000 0.0000 -0.0000 -1.1288 -5.8568 -22.9854 -0.0494 1.4344 -3.9448 1.2603 0.0806 8.2205 0.1727 0.2550 -2.0645 -0.5636 0.0773 -6.7779 0.0273 -0.8803 -14.7970 2.4836 -1.8795 23.1585 0.6225 -0.5841 9.8132 0.0000 0.0000 0.0000 -92.7062 13.1704 22.8822 20.7623 -31.5498 -5.9251 -0.0000 -0.0000 0.1752 4.9322 -21.1170 -1.7808 -7.1250 0.0000 -0.0000 -15.0041 9.3523 12.8262 0.0000 0.0000 0.0000 90.9866 -16.4001 25.4875 -22.1187 33.1110 -6.6506 0.0000 0.0000 11.7941 -4.8590 -37.1509 2.9389 7.1250 -0.0000 -0.0000 36.3016 -63.5734 -17.4879
-0.7168 18.6126 6.0503 -2.7300 -0.2872 -0.9947 0.0000 0.0000 0.0000 -11.4119 -5.5158 -0.9403 1.5011 7.7388 21.9236 1.4338 1.2951 -23.1312 8.4776 -16.4596 -54.2654 0.0000 0.0000 0.0000 16.8529 -1.9430 10.8916 0.0000 -0.0000 0.0000 -1.1223 -5.8854 -22.9490 -0.0497 1.4384 -3.9559 1.2692 0.0930 8.2069 0.1685 0.2721 -2.0591 -0.5753 0.0853 -6.7642 0.0041 -0.8813 -14.8160 2.4728 -1.8726 23.1712 0.6236 -0.5838 9.8213 -0.0000 0.0000 0.0000 -92.7132 13.1918 23.1844 21.0551 -31.8926 -6.0790 -0.0000 -0.0000 0.0815 4.8285 -19.5574 -1.6197 -7.1250 0.0000 -0.0000 -15.1108 10.8676 12.4428 -0.0000 0.0000 0.0000 90.9855 -16.3814 25.4876 -22.1208 33.1133 -6.6517 0.0000 0.0000 11.7691 -4.9946 -37.1416 3.0205 7.1250 -0.0000 -0.0000 36.1539 -63.6023 -17.4315
-0.7154 18.6128 6.0506 -2.7155 -0.2923 -0.9852 0.0000 0.0000 0.0000 -11.4328 -5.5393 -0.9384 1.5002 7.7365 21.9167 1.4349 1.2818 -23.1350 8.4625 -16.4491 -54.2120 0.0000 0.0000 0.0000 16.8319 -1.9346 10.8843 0.0000 -0.0000 0.0000 -1.1272 -5.8564 -22.9715 -0.0499 1.4419 -3.9656 1.2814 0.0995 8.1923 0.1533 0.2808 -2.0577 -0.5992 0.0888 -6.7540 -0.0041 -0.8781 -14.8340 2.4708 -1.8661 23.1901 0.6251 -0.5814 9.8314 -0.0000 0.0000 0.0000 -92.6863 13.2006 23.3185 21.1546 -32.0084 -6.1317 -0.0000 -0.0000 0.0403 4.8304 -19.0637 -1.5811 -7.1250 0.0000 -0.0000 -15.1257 11.3449 12.3022 -0.0000 0.0000 0.0000 91.0060 -16.3667 25.4700 -22.1157 33.1075 -6.6489 0.0000 0.0000 11.7659 -4.9915 -37.1682 3.0205 7.1250 -0.0000 -0.0000 36.1906 -63.6226 -17.4685
-0.7143 18.6127 6.0506 -2.7226 -0.3026 -0.9794 0.0000 0.0000 0.0000 -11.4332 -5.5610 -0.9261 1.4985 7.7323 21.9040 1.4338 1.3065 -23.1356 8.4660 -16.4515 -54.2244 0.0000 0.0000 0.0000 16.8328 -1.9207 10.8774 0.0000 0.0000 -0.0000 -1.1335 -5.8162 -22.9987 -0.0482 1.4164 -3.8954 1.3116 0.0991 8.1635 0.1418 0.2822 -2.0420 -0.6283 0.0883 -6.7205 0.0063 -0.8700 -14.8508 2.4715 -1.8581 23.2018 0.6246 -0.5764 9.8385 -0.0000 -0.0000 0.0000 -92.6439 13.1526 23.3884 21.1034 -31.9488 -6.1045 -0.0000 0.0000 -0.0268 4.9023 -19.0988 -1.6075 -7.1250 0.0000 -0.0000 -15.0788 11.3063 12.2736 -0.0000 -0.0000 0.0000 91.0262 -16.3320 25.4825 -22.1182 33.1103 -6.6503 0.0000 0.0000 11.7572 -4.9372 -37.2691 2.9944 7.1250 -0.0000 -0.0000 36.3729 -63.6879 -17.6234
-0.7139 18.6130 6.0498 -2.7026 -0.3107 -0.9704 0.0000 0.0000 0.0000 -11.4584 -5.5536 -0.9362 1.4977 7.7304 21.8981 1.4299 1.3450 -23.1200 8.4815 -16.4622 -54.2792 0.0000 0.0000 0.0000 16.8096 -1.9077 10.8661 0.0000 -0.0000 0.0000 -1.1305 -5.8331 -22.9843 -0.0505 1.4501 -3.9883 1.3090 0.1092 8.1191 0.1252 0.2934 -2.0124 -0.6455 0.0941 -6.6634 0.0187 -0.8668 -14.8705 2.4716 -1.8562 23.1804 0.6227 -0.5745 9.8345 0.0000 0.0000 0.0000 -92.5854 13.0487 23.5448 20.9971 -31.8250 -6.0484 -0.0000 0.0000 -0.1653 4.9675 -19.1098 -1.6299 -7.1250 0.0000 -0.0000 -15.0370 11.2914 12.2418 0.0000 0.0000 0.0000 91.0501 -16.2712 25.4728 -22.1224 33.1151 -6.6526 0.0000 0.0000 11.7552 -4.9585 -37.2939 3.0091 7.1250 -0.0000 -0.0000 36.3828 -63.7132 -17.6502
-0.7135 18.6130 6.0488 -2.6890 -0.3105 -0.9648 0.0000 0.0000 0.0000 -11.4760 -5.5604 -0.9474 1.4980 7.7312 21.9007 1.4292 1.3510 -23.1176 8.4723 -16.4559 -54.2466 0.0000 0.0000 0.0000 16.7939 -1.9040 10.8557 0.0000 0.0000 -0.0000 -1.1269 -5.8519 -22.9661 -0.0539 1.4986 -4.1218 1.2998 0.1141 8.1132 0.1170 0.2983 -2.0079 -0.6496 0.0967 -6.6551 0.0303 -0.8560 -14.8498 2.4658 -1.8412 23.1439 0.6205 -0.5677 9.8172 0.0000 -0.0000 0.0000 -92.5584 13.0025 23.5736 20.9468 -31.7662 -6.0219 -0.0000 0.0000 -0.0527 4.9033 -19.1156 -1.6092 -7.1250 0.0000 -0.0000 -15.0776 11.2900 12.2779 0.0000 -0.0000 0.0000 91.0611 -16.2625 25.4623 -22.1259 33.1190 -6.6545 0.0000 0.0000 11.7407 -5.0042 -37.2603 3.0346 7.1250 -0.0000 -0.0000 36.2944 -63.6989 -17.5896
-0.7124 18.6131 6.0475 -2.6788 -0.2988 -0.9635 0.0000 0.0000 0.0000 -11.4932 -5.5766 -0.9504 1.4982 7.7317 21.9020 1.4313 1.3428 -23.1310 8.4742 -16.4572 -54.2532 0.0000 0.0000 0.0000 16.7775 -1.9126 10.8473 0.0000 -0.0000 0.0000 -1.1284 -5.8391 -22.9708 -0.0503 1.4478 -3.9819 1.3122 0.1065 8.1207 0.1028 0.2886 -2.0068 -0.6702 0.0912 -6.6584 0.0482 -0.8403 -14.8221 2.4525 -1.8192 23.1143 0.6156 -0.5580 9.8008 -0.0000 0.0000 0.0000 -92.5534 12.9792 23.4463 20.9474 -31.7668 -6.0222 -0.0000 -0.0000 0.3334 4.7583 -19.1277 -1.5624 -7.1250 0.0000 -0.0000 -15.1693 11.2876 12.3590 -0.0000 0.0000 0.0000 91.0683 -16.2656 25.4769 -22.1223 33.1150 -6.6525 0.0000 0.0000 11.6957 -5.0687 -37.1954 3.0693 7.1250 -0.0000 -0.0000 36.1474 -63.6648 -17.4803
